<svg version="1.2" xmlns="http://www.w3.org/2000/svg" viewBox="0 0 1000 1000" width="1000" height="1000">
	<title>4541322</title>
	<defs>
		<clipPath clipPathUnits="userSpaceOnUse" id="cp1">
			<path d="m1000 1000h-1000v-1000h1000z"/>
		</clipPath>
	</defs>
	<style>
		.s0 { mix-blend-mode: multiply;fill: #270e5a } 
		.s1 { fill: #5c2e0c } 
		.s2 { fill: #946eff } 
		.s3 { fill: #242c3a } 
		.s4 { fill: #7c67b7 } 
		.s5 { fill: #749ce2 } 
		.s6 { fill: #485f93 } 
		.s7 { fill: #ffd7cf } 
		.s8 { fill: #442005 } 
		.s9 { fill: #bc5555 } 
		.s10 { opacity: .78;mix-blend-mode: multiply;fill: #f9afa0 } 
		.s11 { fill: #b79eff } 
		.s12 { fill: #ffffff } 
		.s13 { fill: #472f8e } 
		.s14 { mix-blend-mode: multiply;fill: #ffffff;stroke: #843a3a;stroke-miterlimit:10;stroke-width: 6 } 
		.s15 { fill: #c6be5c } 
		.s16 { fill: #b297fe } 
		.s17 { fill: #843a3a } 
		.s18 { fill: #04020c } 
		.s19 { fill: #332665 } 
		.s20 { fill: #5b3fae } 
		.s21 { fill: #934a19 } 
		.s22 { fill: #bbdef2 } 
		.s23 { fill: #bc652a } 
		.s24 { opacity: .6;fill: #f9afa0 } 
		.s25 { fill: none;stroke: #a04747;stroke-linecap: round;stroke-miterlimit:10;stroke-width: 4 } 
		.s26 { fill: none;stroke: #934a19;stroke-miterlimit:10;stroke-width: 2 } 
		.s27 { fill: #313d56 } 
	</style>
	<g id="OBJECTS" clip-path="url(#cp1)">
		<path id="&lt;Path&gt;" class="s0" d="m379.6 853.5c8.3-2.8 16.6-5.5 25-7.7 28.7-7.6 55.1-12.1 85.4-9.9 34.1 2.5 66.7 8.2 100.7 13.3 13.4 1.9 26.8 2.8 40.3 3.9 111.5 8.9 224.8 31.5 334.1 7.4 4.2-0.9 8.7-2 11.9-4.9 3.3-2.9 4.9-8.2 2.3-11.7-2.1-3-6.2-3.8-9.9-4.2-71.1-8.9-142.7-13.3-214.4-13.2 2.7-2.4 1.8-7.1-0.9-9.5-2.7-2.4-6.5-3.1-10-3.5-18.3-2.4-36 0.3-54.2 0.6-19.7 0.4-39.4-0.2-59 0q-65.7 0.6-131.3 4.3c-40.5 2.2-83.2 2.5-123.2 9.6-36.8 6.5-73.2 14.7-111 18.3q-18.2 1.6-36.5 2.7c-53.9 3-107.6-0.2-161.5 4.4-9.3 0.8-19.2 2-26.4 8-1.7 1.4-3.4 3.6-2.7 5.8 0.4 1.4 1.6 2.3 2.8 3.1 15 10.1 33.7 12.3 51.7 13.7 72.6 5.6 154 10 225-9.6 21-5.8 41.2-13.9 61.8-20.9z"/>
		<g id="&lt;Group&gt;">
			<path id="&lt;Path&gt;" class="s1" d="m828.8 234.9c0.5-14.7 4.4-29.1 5.8-43.8 1.3-14.7-0.1-30.6-9-42.4-3.6-4.8-8.2-8.6-13.1-12.1-13-9.1-28.1-15.3-43.8-17.9-19.1-3.2-46.9-1.3-55.1 19.3-7 17.5-13.1 35.2-18.5 53.2-3.2 10.8-6.1 22-5.4 33.2 1.4-0.4 2.7-1.3 3.6-2.5-4 18.8-7.3 38.4-3.7 57.3 3.6 18.9 15.6 37.3 33.9 43.5 6.1 2 12.6 2.7 19.1 2.4 4.3-0.3 8.3-2.3 12.6-1.8 4.9 0.7 9.5 4.3 12.8 7.9 11.1 12.1 14.6 29.6 14.4 46.1-0.3 16.5-3.8 32.8-4.6 49.3-0.5 10.2 0.4 21.4 7.5 28.7 5.1 5.3 12.6 7.7 19.9 8.6 17.1 2.1 35-2.4 48.4-13.1 13.4-10.7 21.9-27.5 21.8-44.7 0-2.4-0.3-4.9-1.7-6.8-1.5-1.9-4.5-2.7-6.3-1.1 6-7.4 11.9-14.9 15.5-23.6 7.7-18.5 3.8-40.3-5.7-57.9-8.2-15.1-20.1-27.7-32.5-39.5-12-11.4-16.5-25.6-15.9-42.3z"/>
			<g id="&lt;Group&gt;">
				<g id="&lt;Group&gt;">
					<path id="&lt;Path&gt;" class="s2" d="m881.8 818.5q-1.4 2.1-3.2 3.8c-12 11.7-31.1 20.1-47 24.5-5 1.3-11.5 4.2-10.6 9.4 37.4 7.1 76.3 6.5 113.5-1.8-2.7 0.5-14.7-42.5-15.7-46.7-0.1-0.4-0.2-0.9-0.5-1.3-0.7-0.8-2-0.6-3-0.3-9.8 2.2-19.9 3-29.9 2.4-0.1 3.6-1.5 7-3.6 10z"/>
					<path id="&lt;Path&gt;" class="s3" d="m823.1 851.8c-0.8-0.1-1.6-0.3-2.3-0.1-2 0.6-2.6 3.1-2.4 5.1 0.2 2 0.7 4.2-0.2 6 20.6 2.3 41.5 3.1 62.3 2.4q15.6-0.5 31.1-2.1c8.8-0.9 17.1-0.4 25.5-3.7-0.2-1.1-2.5-13.2-2.8-13-13.7 5.4-29.9 6.1-44.5 7.5-22.2 2.1-44.7 1.4-66.7-2.1z"/>
				</g>
				<g id="&lt;Group&gt;">
					<path id="&lt;Path&gt;" class="s4" d="m638.2 811.2q-1.4 1.6-3 2.9c-10.7 8.9-27.2 14.7-40.7 17.3-4.3 0.8-9.9 2.8-9.4 7.1 30.6 8.5 63.1 10.5 94.6 6-2.3 0.2-9.5-36.3-10-39.9-0.1-0.4-0.1-0.8-0.4-1.1-0.5-0.7-1.6-0.7-2.4-0.5-8.3 1.2-16.8 1.2-25.1 0-0.3 3-1.7 5.8-3.6 8.2z"/>
					<path id="&lt;Path&gt;" class="s3" d="m587.1 835c-0.7-0.2-1.3-0.3-1.9-0.2-1.7 0.4-2.4 2.4-2.4 4.1 0 1.7 0.3 3.5-0.6 5 17.1 3.2 34.4 5.2 51.8 6q13 0.6 26.1 0.3c7.3-0.2 14.2 0.8 21.4-1.4 0-0.9-1.2-11.1-1.4-11-11.8 3.6-25.4 3.2-37.6 3.4-18.6 0.2-37.3-1.8-55.4-6.2z"/>
				</g>
				<g id="&lt;Group&gt;">
					<path id="&lt;Path&gt;" class="s5" d="m696.2 442.7c35-1.3 70.5-1.6 105.5-3 9.5 20.2 14.2 42.6 13.7 64.8-0.1 4.6-0.5 9.1-0.1 13.6 0.5 5.3 1.9 10.3 3.3 15.4q11.6 41.9 23.1 83.8c1.9 6.6 3.7 13.2 6.6 19.3 4 8.4 9.9 15.6 14.7 23.5 20.2 33 24.5 72.5 41.8 106.9 2.1 4.3 4.4 9.3 2.4 13.6 3.1 0.5 6.5 1.2 8.2 3.7 1.7 2.5 1.2 5.9 1.8 8.8 0.6 3 3.6 6.1 6.2 4.6-6 7.7 9 17.2-8.7 18.4-12.9 0.9-27 1.6-37.7-5.7 9.2-10.5-10.3-34.5-15.8-44.3-9.1-16.2-18.9-32.1-28-48.3-9.5-14.3-16.9-30.8-24.8-46.1q-12.2-23.7-23.7-47.9-11.5-24.1-22.2-48.6c-6.6-15.3-11.8-31.4-19.7-45.9-15.1 63-38.4 123.6-46.9 188.3-3.3 25.6-4.9 52.6-18.1 74.9 5.5 4.8-5.6 15.6-0.1 20.5-14 5.2-23.5 2.2-37.2 0-1.8-0.2-3.6-0.6-5-1.7-2.1-1.9-2.2-5.2-2.1-8 0-2.7 0.7-6 3.3-6.5-0.3-5.8 0.8-11.6 1.9-17.3q2.2-11.2 4.2-22.5c9.4-52.2 13.6-105.4 23.1-157.4 4.9-26.5 10.6-52.7 16.1-79 1.4-6.7 13.1-77.8 14.2-77.9z"/>
					<g id="&lt;Group&gt;">
						<g id="&lt;Group&gt;" style="opacity: .42;mix-blend-mode: multiply">
							<path id="&lt;Path&gt;" class="s6" d="m743.1 521.5c0 0-0.9-2.1-1.9-5.3-1.1-3.3-2.3-7.7-3.3-12.1-1-4.4-1.7-8.9-2.2-12.3-0.4-3.4-0.5-5.7-0.5-5.7 0 0 0.2 0.6 0.5 1.5 0.3 1 0.7 2.3 1.2 4 0.9 3.3 2 7.7 2.9 12.1 1 4.4 1.9 8.8 2.5 12.2 0.3 1.7 0.4 3.1 0.6 4.1 0.1 0.9 0.2 1.5 0.2 1.5z"/>
						</g>
						<g id="&lt;Group&gt;" style="opacity: .42;mix-blend-mode: multiply">
							<path id="&lt;Path&gt;" class="s6" d="m737 521.2c0 0-0.8 0.3-2.4 0.9-0.8 0.2-1.8 0.5-3 0.7-1.2 0.2-2.6 0.2-4.1-0.2-1.4-0.5-3-1.4-4-3-1-1.6-1.2-3.5-1.4-5.3-0.4-3.5-0.8-7.3-1.2-11.1-0.3-3.8-0.7-7.6-1-11.1-0.3-3.6-0.4-6.9-0.6-9.8-0.2-2.9-0.2-5.2-0.3-6.9-0.1-1.7-0.1-2.6-0.1-2.6 0 0 0.2 0.9 0.5 2.5 0.2 1.7 0.6 4.1 1 6.9 0.4 2.8 0.9 6.1 1.3 9.7 0.4 3.5 0.8 7.3 1.2 11.1 0.4 3.8 0.7 7.6 1 11.2 0.1 1.8 0.2 3.4 0.9 4.7 0.6 1.3 1.8 2.1 3.1 2.6 2.5 0.9 5 0.5 6.6 0.2 1.6-0.3 2.5-0.5 2.5-0.5z"/>
						</g>
						<g id="&lt;Group&gt;" style="opacity: .42;mix-blend-mode: multiply">
							<path id="&lt;Path&gt;" class="s6" d="m724.4 477.5c0 0 0.1 0.6 0.3 1.6 0.2 1 0.4 2.5 0.7 4.3 0.5 3.5 1.1 8.3 2.1 12.9q0.3 1.7 0.7 3.4c0.3 1.1 0.6 2.3 0.9 3.3 0.7 2 1.7 3.8 2.8 5.1 1.1 1.3 2.3 2.1 3.3 2.4 1 0.4 1.6 0.4 1.6 0.4q0 0-0.5 0-0.4 0.1-1.2 0c-1-0.2-2.6-0.7-4-2-1.5-1.3-2.8-3.1-3.6-5.3-0.9-2.2-1.5-4.5-2-6.9-1-4.8-1.2-9.6-1.3-13.2 0-3.6 0.2-6 0.2-6z"/>
						</g>
						<g id="&lt;Group&gt;" style="opacity: .42;mix-blend-mode: multiply">
							<path id="&lt;Path&gt;" class="s6" d="m769.1 472.9c0 0 0.6 0.4 1.5 1.1 1 0.7 2.4 1.6 4 2.8 1.6 1.2 3.5 2.7 5.5 4.3 2 1.5 4 3.2 6.2 4.7 2.2 1.6 4.4 3.1 6.5 4.3q1.6 0.9 3.2 1.7c1 0.4 2 0.9 2.9 1.2 0.9 0.4 1.8 0.7 2.6 0.9 0.8 0.2 1.5 0.4 2 0.6 1.2 0.2 1.9 0.3 1.9 0.3 0 0-0.7 0.1-1.9 0.1-1.2-0.1-2.9-0.2-4.9-0.8-1-0.2-2.1-0.5-3.2-0.9-1.1-0.5-2.3-1-3.4-1.5-2.3-1.2-4.6-2.7-6.9-4.3-4.4-3.2-8.3-6.9-11.2-9.7-1.5-1.4-2.7-2.6-3.5-3.4-0.9-0.9-1.3-1.4-1.3-1.4z"/>
						</g>
						<g id="&lt;Group&gt;" style="opacity: .42;mix-blend-mode: multiply">
							<path id="&lt;Path&gt;" class="s6" d="m684.7 497.6c0 0 0.5-0.1 1.3-0.6 0.8-0.4 1.7-1.2 2.7-2.3 1-1.1 2.1-2.5 3.4-3.9 1.2-1.5 2.5-3.1 3.8-4.6 2.6-3.1 5.2-6.3 7.2-8.6 1-1.1 1.9-2.1 2.5-2.8 0.6-0.6 0.9-1 0.9-1 0 0-0.9 1.9-2.5 4.5-1.6 2.6-3.9 6-6.6 9.1-1.3 1.6-2.7 3.1-4 4.5-1.4 1.4-2.6 2.7-3.9 3.7-1.2 1-2.5 1.5-3.4 1.8-0.8 0.2-1.4 0.2-1.4 0.2z"/>
						</g>
						<g id="&lt;Group&gt;" style="opacity: .42;mix-blend-mode: multiply">
							<path id="&lt;Path&gt;" class="s6" d="m807.3 662.3c0.1-0.1 0 0.3 0.1 0.7 0.1 0.5 0.4 1.1 1 1.6 0.5 0.5 1.3 0.8 2.1 0.8 0.2 0 0.1 0 0.3 0q0.2 0 0.4-0.1c0.1 0 0.3-0.1 0.5-0.2q0.7-0.2 1.2-0.7 0.6-0.5 1-1c0.3-0.5 0.5-0.8 0.7-1.3 0.4-0.8 0.7-1.8 0.9-2.6 0.2-0.8 0.4-1.5 0.5-2 0.1-0.5 0.2-0.8 0.2-0.8 0 0 0.4 1.1 0.5 2.9 0 0.9-0.1 2-0.4 3.2-0.2 0.5-0.4 1.1-0.8 1.6q-0.5 0.9-1.3 1.5-0.8 0.7-1.8 1c-0.3 0.2-0.6 0.2-1 0.3q-0.3 0-0.5 0c-0.1 0-0.4 0-0.5 0-1.4-0.2-2.4-1.1-2.9-1.9-0.6-0.8-0.6-1.7-0.5-2.3 0.2-0.5 0.4-0.7 0.3-0.7z"/>
						</g>
						<g id="&lt;Group&gt;" style="opacity: .42;mix-blend-mode: multiply">
							<path id="&lt;Path&gt;" class="s6" d="m837.4 620.8c0 0 0.3 1.4 0.6 3.6 0.2 2.2 0.4 5.1 0.4 8 0 3-0.2 5.9-0.4 8.1-0.3 2.2-0.6 3.6-0.6 3.6 0 0-0.3-1.4-0.6-3.6-0.2-2.2-0.4-5.1-0.4-8.1 0-2.9 0.2-5.8 0.4-8 0.3-2.2 0.6-3.6 0.6-3.6z"/>
						</g>
						<g id="&lt;Group&gt;" style="opacity: .42;mix-blend-mode: multiply">
							<path id="&lt;Path&gt;" class="s6" d="m864.7 672.8c0 0 0.1 0.5 0.3 1.5q0.1 0.8 0.1 1.8c0.1 0.7 0.1 1.5 0.1 2.4 0 1.7-0.2 3.7-0.5 5.8-0.3 1.1-0.5 2.2-0.8 3.3-0.3 1.1-0.7 2.1-1.1 3.2-0.4 1.1-0.9 2.2-1.4 3.2-0.5 1-1.1 2-1.6 2.9-1.2 1.8-2.4 3.4-3.5 4.7-0.6 0.6-1.2 1.2-1.7 1.7q-0.7 0.7-1.3 1.2c-0.8 0.6-1.2 1-1.2 1 0 0 0.3-0.5 0.9-1.3 0.6-0.8 1.4-1.9 2.4-3.3 0.4-0.7 0.9-1.5 1.4-2.3 0.5-0.8 0.9-1.7 1.5-2.6 0.9-1.8 1.9-3.8 2.7-5.9 0.8-2 1.4-4.2 1.9-6.2 0.3-1 0.5-1.9 0.7-2.9 0.2-0.9 0.4-1.8 0.5-2.6 0.2-1.7 0.4-3.1 0.5-4.1 0-1 0.1-1.5 0.1-1.5z"/>
						</g>
						<g id="&lt;Group&gt;" style="opacity: .42;mix-blend-mode: multiply">
							<path id="&lt;Path&gt;" class="s6" d="m878 718.1c0 0-0.4 0.8-1.2 2-0.7 1.2-1.8 2.6-3.1 4-1.2 1.3-2.6 2.5-3.7 3.4-1.1 0.8-2 1.2-2 1.2 0 0 0.4-0.9 1.1-2 0.8-1.2 1.9-2.7 3.2-4 1.2-1.3 2.6-2.5 3.7-3.4 1.1-0.8 2-1.2 2-1.2z"/>
						</g>
						<g id="&lt;Group&gt;" style="opacity: .42;mix-blend-mode: multiply">
							<path id="&lt;Path&gt;" class="s6" d="m886.2 793.4c0 0 0.4-0.2 1.2-0.5 0.7-0.3 1.8-0.7 3.1-1.2 1.3-0.5 2.7-1.2 4.3-1.9 1.5-0.7 3.1-1.5 4.6-2.5 0.7-0.5 1.5-0.9 2.2-1.5 0.6-0.5 1.2-1.1 1.8-1.7 0.5-0.6 1.1-1.2 1.5-1.8q0.3-0.5 0.6-0.9 0.3-0.5 0.5-1c0.3-0.6 0.5-1.1 0.7-1.7q0.3-0.7 0.3-1.3c0.2-0.8 0.3-1.3 0.3-1.3 0 0 0.1 0.5 0.1 1.3 0.1 0.4 0.1 0.9 0 1.5-0.1 0.6-0.1 1.3-0.4 1.9q-0.1 0.6-0.3 1.1-0.2 0.6-0.5 1.1c-0.3 0.8-0.9 1.5-1.4 2.3-0.6 0.6-1.2 1.4-2 2-0.7 0.6-1.5 1.2-2.3 1.7-0.8 0.5-1.7 1-2.5 1.4-0.8 0.4-1.7 0.7-2.5 1.1-1.7 0.6-3.3 1-4.7 1.3-2.8 0.5-4.6 0.6-4.6 0.6z"/>
						</g>
						<g id="&lt;Group&gt;" style="opacity: .42;mix-blend-mode: multiply">
							<path id="&lt;Path&gt;" class="s6" d="m881.2 800.1c0 0 0.6-0.1 1.6-0.2 0.9 0 2.3-0.2 3.9-0.5q1.2-0.2 2.6-0.5c0.9-0.2 1.8-0.5 2.8-0.7 1-0.4 1.9-0.7 2.9-1.1 1-0.4 1.9-0.9 2.9-1.4 0.9-0.6 1.9-1.1 2.7-1.7 0.9-0.6 1.7-1.2 2.5-1.9 0.8-0.6 1.5-1.2 2.2-1.9q1-1 1.8-1.9c0.6-0.6 1.1-1.2 1.5-1.7q0.7-0.7 1.1-1.3c0.6-0.8 1-1.2 1-1.2 0 0-0.2 0.5-0.6 1.4q-0.3 0.7-0.9 1.6c-0.3 0.6-0.7 1.3-1.2 1.9-0.9 1.5-2.2 3-3.7 4.5-0.8 0.7-1.6 1.4-2.6 2.1-0.9 0.6-1.9 1.2-2.9 1.8-1 0.5-2 1.1-3.1 1.4-1 0.5-2.1 0.7-3.1 1-1.1 0.3-2.1 0.5-3 0.6q-1.5 0.2-2.8 0.2c-0.8 0-1.6-0.1-2.3-0.1q-1-0.1-1.8-0.2c-0.9-0.1-1.5-0.2-1.5-0.2z"/>
						</g>
						<g id="&lt;Group&gt;" style="opacity: .42;mix-blend-mode: multiply">
							<path id="&lt;Path&gt;" class="s6" d="m888.3 806.4c0 0 0.5 0 1.5 0 1 0.1 2.5 0 4.2-0.1 3.4-0.1 7.9-0.6 12.3-1.6 1.1-0.3 2.2-0.6 3.2-0.9q1.6-0.6 3.1-1.2c1.9-0.8 3.8-1.6 5.4-2.1 1.7-0.6 3.2-0.9 4.2-1.1 1-0.2 1.5-0.2 1.5-0.2 0 0-0.5 0.2-1.4 0.6-1 0.3-2.3 0.9-3.8 1.7-1.5 0.8-3.3 1.8-5.2 2.7-1 0.5-2 1-3.1 1.4-1.2 0.4-2.3 0.7-3.4 1-4.6 1.1-9.4 1.3-12.8 0.9-1.8-0.2-3.2-0.5-4.2-0.7-1-0.2-1.5-0.4-1.5-0.4z"/>
						</g>
						<g id="&lt;Group&gt;" style="opacity: .42;mix-blend-mode: multiply">
							<path id="&lt;Path&gt;" class="s6" d="m682.1 590.6q0 0 0.6 0.1c0.4 0 1 0 1.7-0.1 1.5-0.3 3.2-1.5 5-3.2 1.8-1.8 3.9-4 6.1-6.2 2.2-2.3 4.6-4.8 6.8-7.2q1.8-1.9 3.5-3.8 1.7-1.8 3.3-3.6c2.1-2.4 4.1-4.6 5.7-6.5 1.7-1.9 3.1-3.5 4.1-4.6 1-1.2 1.5-1.8 1.5-1.8 0 0-1.7 2.9-4.7 7.1-1.5 2.1-3.3 4.5-5.3 7-2 2.5-4.3 5-6.6 7.5-2.3 2.5-4.7 4.9-7.1 7.1-1.1 1.1-2.3 2.2-3.4 3.1-1.1 1-2.1 1.9-3.2 2.7-2 1.7-4.1 2.6-5.6 2.7-0.8 0.1-1.4 0-1.8-0.1q-0.6-0.2-0.6-0.2z"/>
						</g>
						<g id="&lt;Group&gt;" style="opacity: .42;mix-blend-mode: multiply">
							<path id="&lt;Path&gt;" class="s6" d="m711.4 581.5c0 0 0.2-0.8 0.6-1.7 0.4-0.9 1.1-2 2-3 0.8-1 1.8-1.9 2.6-2.5 0.8-0.5 1.5-0.8 1.5-0.8 0 0-0.2 0.7-0.6 1.6-0.4 0.9-1.2 2-2 3-0.8 1-1.8 1.9-2.6 2.5-0.8 0.6-1.5 0.9-1.5 0.9z"/>
						</g>
					</g>
				</g>
			</g>
			<g id="&lt;Group&gt;">
				<path id="&lt;Path&gt;" class="s7" d="m718.5 136.1c-5.6 7.7-8 17.1-10.3 26.3-2.3 9.7-4.7 19.3-6.5 29.1-1.3 7.1-2.4 14.5-0.8 21.5 5.8 27.1 38.3 39 62.9 32.8 8.1-2 15.7-5.9 22.2-11.2 7.5-6.2 11.2-12.8 15.2-21.5-1.2 2.6 7 4.2 8.2 4.1 3.9-0.2 7.6-2.4 10.4-5 5.5-4.7 9.5-11.7 11-18.8 1-4.7 0.8-9.9-2-13.6-2.9-3.8-9.1-5.1-12.4-1.7 3.2-4.8 3.3-11.1 1.3-16.5-2-5.4-5.8-9.9-9.9-13.8-19.5-18.3-69-39.1-89.3-11.7z"/>
				<path id="&lt;Path&gt;" class="s1" d="m733 135c-0.6 13.2 6 30.6 21.3 31.9 6.6 0.6 13.4-2.6 17.2-8-0.3 5.4 1.8 10.9 5.6 14.7 3.8 3.8 9.3 5.8 14.6 5.5 4.3-0.3 8.4-2 12.4-3.8-5 9.2-7.5 19.7-7 30.2 0.1 1.7 1 4 2.7 3.6 0.9-0.3 1.3-1.2 1.7-2 3.3-7.8 5.5-16.1 6.5-24.6 1.4 2.1 4.9 0.8 6.4-1.3 1.5-2.1 2.4-4.8 4.6-6.1 1.2-0.6 2.6-0.7 3.6-1.6 1.1-0.9 1.5-2.4 1.6-3.8 1.7-12.2-5-24.3-14.5-32-9.6-7.7-21.5-11.6-33.4-14.7-9.6-2.4-19.5-4.4-29.4-4-9.4 0.4-13.4 6.7-13.9 16z"/>
				<g id="&lt;Group&gt;">
					<path id="&lt;Path&gt;" class="s8" d="m711.5 176.8c3.4 2.6 4.4-4.4 4.1-6.2-0.1-0.6-0.2-1.2-0.6-1.7-0.3-0.5-0.9-0.9-1.5-0.8-0.5 0-1 0.3-1.4 0.7-1.8 1.6-2.9 6.3-0.6 8z"/>
					<path id="&lt;Path&gt;" class="s8" d="m757 175.8c0.5 0.1 1 0.5 1.5 1.4 1 1.9 1.1 4.3 0.1 6.1-0.3 0.6-0.7 1.1-1.2 1.5-2.2 1.3-3.7-0.7-3.9-2.6-0.2-1.8 1.5-6.8 3.5-6.4z"/>
				</g>
				<g id="&lt;Group&gt;">
					<g id="&lt;Group&gt;">
						<path id="&lt;Path&gt;" class="s9" d="m728 174.4c-0.2 1.4-0.9 2.8-1.8 4q-1.4 1.8-3.4 3c-0.5 0.3-1.3 0.7-2 0.9q-1 0.5-2.1 0.7-2.2 0.6-4.4 0.6l0.8-1.4q1.6 2.9 3.7 5.6 1.1 1.3 2.3 2.5c0.8 0.9 1.7 1.6 2.6 2.4-4.4-1.8-8-5.4-10.3-9.6l-0.7-1.4 1.5-0.1c1.4 0 2.8-0.2 4.1-0.4q0.9-0.3 1.9-0.6c0.7-0.2 1.2-0.4 1.9-0.7 1.2-0.6 2.3-1.3 3.3-2.2q0.8-0.7 1.4-1.5 0.7-0.8 1.2-1.8z"/>
					</g>
					<g id="&lt;Group&gt;">
						<path id="&lt;Path&gt;" class="s9" d="m713.2 198.4c0 0 0.3 0.5 0.9 1.3 0.5 0.7 1.5 1.7 2.8 2.6 1.2 0.9 2.9 1.7 4.7 2.1 1.9 0.4 4 0.6 6 0.4 1.1-0.1 2.1-0.2 3.1-0.5 1-0.2 2-0.5 2.9-0.8 1.8-0.6 3.4-1.5 4.7-2.5 1.2-0.9 2.2-1.8 2.7-2.6 0.6-0.7 0.9-1.2 0.9-1.2q0 0-0.1 0.4c-0.1 0.2-0.2 0.6-0.4 1q-0.3 0.7-0.9 1.5-0.6 0.9-1.5 1.8c-1.2 1.2-2.8 2.4-4.8 3.2-0.9 0.5-2 0.9-3.1 1.1-1 0.3-2.2 0.5-3.3 0.6-2.3 0.2-4.6 0-6.6-0.7-2.1-0.7-3.8-1.8-5.1-2.9-1.2-1.2-1.9-2.5-2.3-3.3-0.5-0.9-0.6-1.5-0.6-1.5z"/>
					</g>
					<g id="&lt;Group&gt;">
						<path id="&lt;Path&gt;" class="s9" d="m821.6 190.4c-0.1 0 0-0.2-0.2-0.5-0.1-0.3-0.5-0.7-1.1-0.9-0.5-0.1-1.3 0-2 0.4-0.8 0.4-1.6 1.1-2.4 1.8-1.7 1.4-3.2 3.5-4.3 5.9-0.5 1.3-0.8 2.6-1 4-0.2 1.3-0.3 2.9 0.3 3.6 0.5 0.8 1.9 1.1 3 0.8 1.1-0.2 2.1-1.1 2.7-2.2 0.7-1.1 1.2-2.4 1.4-3.5 0.3-1.1 0.2-2.2-0.4-3-0.5-0.7-1.5-1-2.3-1.1-0.9 0-1.6 0.2-2.2 0.4-0.6 0.3-1 0.6-1.2 0.9-0.3 0.2-0.4 0.4-0.4 0.4 0 0 0.1-0.2 0.3-0.5 0.2-0.3 0.5-0.7 1.1-1.1 0.6-0.4 1.4-0.8 2.4-0.8 1-0.1 2.2 0.1 3.2 1.1 1 1 1.2 2.6 1 3.9-0.2 1.5-0.6 2.8-1.3 4.2-0.8 1.3-2 2.7-3.8 3.2-1.7 0.5-3.8 0.1-5.1-1.5-0.7-0.9-0.8-1.9-0.8-2.7q0-1.2 0.2-2.4c0.2-1.6 0.7-3 1.3-4.4 1.3-2.7 3.2-4.8 5.2-6.1 1-0.7 1.8-1.2 2.8-1.5 0.9-0.4 1.8-0.5 2.5-0.1 0.7 0.3 1 0.8 1 1.2 0.1 0.3 0 0.5 0.1 0.5z"/>
					</g>
				</g>
				<g id="&lt;Group&gt;">
					<path id="&lt;Path&gt;" class="s10" d="m775.7 195.3c-6-3.2-12.7-4.9-19.4-4.9-2 0-4 0.1-5.8 0.8-0.5 0.2-0.9 0.4-1.2 0.8-0.6 1.1 0.4 2.3 1.4 3.1 5.3 4 11.7 6.6 18.3 7.4 3.1 0.4 6.3 0.3 9.2-0.8 0.7-0.3 1.5-0.8 1.7-1.5 0.2-0.6-0.1-1.2-0.4-1.8-0.9-1.4-2.3-2.3-3.8-3.1z"/>
					<path id="&lt;Path&gt;" class="s10" d="m710.9 184.1c0.4 0.4 0.8 0.8 0.9 1.2 0.3 1.1-0.4 2.1-1.2 2.8-1.7 1.3-3.9 1.8-6 1.5-0.3-0.1-0.6-0.2-0.9-0.4-0.6-0.5-0.6-1.4-0.5-2.2q0.3-1.9 1.2-3.6c0.4-0.7 0.9-1.5 1.7-1.7 1-0.4 2.1 0.2 2.9 0.9q1 0.7 1.9 1.5z"/>
				</g>
				<g id="&lt;Group&gt;">
					<path id="&lt;Path&gt;" class="s8" d="m721 154.3c0 0-0.8-1.1-1.9-1.8-0.6-0.4-1.3-0.6-2-0.7h-0.1c0 0 0.3 0.1 0.2 0h-0.1-0.1-0.4q-0.3-0.1-0.3 0-0.1 0-0.1 0c-0.3 0.1-0.6 0.1-0.9 0.2-1.2 0.5-2.6 1.8-3.6 2.9-0.5 0.5-0.9 1.1-1.2 1.5-0.3 0.5-0.4 0.7-0.4 0.7 0 0-0.2-0.3-0.4-0.8-0.1-0.5-0.3-1.3-0.1-2.3 0.1-0.9 0.4-2 1.1-3.1 0.3-0.5 0.8-1 1.3-1.5 0.5-0.4 1.2-0.8 1.9-1.1 0.7-0.3 1.5-0.4 2.3-0.4 0.4 0.1 1 0.1 1.2 0.2l0.4 0.2h0.1l0.2 0.1 0.2 0.1c1.3 0.6 2.2 1.6 2.6 2.6 0.4 0.9 0.4 1.8 0.3 2.3-0.1 0.6-0.2 0.9-0.2 0.9z"/>
				</g>
				<g id="&lt;Group&gt;">
					<path id="&lt;Path&gt;" class="s11" d="m744.5 108.1c21.1-8.3 44.8-11.1 66.6-5 4.3 1.2 8.5 2.7 12.3 4.8 14.7 8 24.1 24.4 25 41 0.4 8-1 15.9-3.8 23.3-2.8 7.5-7.5 12.8-11.4 19.4-4.3-11.8-4.5-24.2-10-35.4-5.1-10.5-12.7-19.9-22-27-19.8-15-46.9-19.6-70.8-12.6 3.8-4.1 9-6.5 14.1-8.5z"/>
					<path id="&lt;Path&gt;" class="s12" d="m837.6 176.6c-0.2 1.1-0.8 2.1-1.7 2.8 2.9 1.3 2.3 5.9 0.1 8.2-0.6 0.6-1.2 1.1-1.5 1.8-0.3 0.8-0.2 1.7-0.3 2.5-0.1 2.7-1.9 5.2-4.4 6.1 0-6.6 3.4-24.1-9.3-21.4-3 0.6-5.4 2.9-6.3 5.8-1.6-3.7-2-7.9-1.1-11.8-2.1 0.4-4.4-0.8-5.3-2.8-0.9-1.9-0.3-4.4 1.3-5.8-1.8 0.4-3.8-0.4-4.9-1.9-1.1-1.5-1.2-3.7-0.2-5.3-3.7 1.1-8 0.9-11.1-1.4-3.1-2.2-4.5-7-2.2-10.1-4.4 1.6-9.9-2.1-9.9-6.8-2.2 0.6-4.6 1.1-6.9 0.4-2.2-0.7-4.2-2.8-3.9-5.1-2.7 0.7-5.6 1.4-8.3 0.9-2.8-0.6-5.4-2.9-5.4-5.7-4.5 2.4-10.6 1-13.6-3.1-16.8 1.1-31.8 15.2-34.1 31.9-0.5 3.4-4.5 0.6-5.1-1.4-0.4-1.9 0.3-3.8 1.2-5.6-2.2-1.5-2.9-4.8-1.7-7.1 0.4-0.7 0.9-1.3 1.1-2.1 0.1-0.7 0-1.5-0.1-2.3-0.3-3.4 1.2-6.8 3.2-9.7 4.9-7.3 12.6-12.8 21.1-15.1 0-2.6 2.9-4.2 5.3-5.2 3.5-1.5 7.1-3 10.9-3.3 3.8-0.2 7.9 1 10.1 4.1 6.3-3.3 14.5-2.2 19.7 2.6 4.8-2.2 10.9-0.8 14.3 3.3 0.6 0.7 1.1 1.5 2 1.9 0.7 0.4 1.7 0.4 2.5 0.5 5 0.3 9.8 3.4 12 7.9 1.5 2.9 5.6 3.3 8.4 4.9 3.5 2.1 6.7 4.8 9.2 8 2.8 3.5 4.8 8.3 2.7 12.1 4.1 0.6 7.9 3.5 9.5 7.3 1.7 3.8 1.3 8.5-1.1 11.9 3.2 1.1 4.7 4.9 3.8 8.1z"/>
				</g>
			</g>
			<g id="&lt;Group&gt;">
				<path id="&lt;Path&gt;" class="s13" d="m652.6 365.1q21-11.8 41.3-24.8c-1.7 1.1 1.5 22 1.4 25.1-0.3 8.7-0.6 17.4-0.8 26-0.5 16.4-2.3 33 0.7 49.2 0.3 2 0.8 4.1 1.8 5.8 1.6 2.7 4.5 4.5 7.3 5.8 14.6 7.1 34.7 6.7 50.5 5.5 17.7-1.3 35.2-5.6 51.5-12.8 0.2-0.1 1.2-12.9 1.3-13.9q0.5-4.5 1-9.1c0.2-1.8-1.6-12.2-4.3-6.4 1.9-4.2 3.8-8.6 3.5-13.3-0.2-4.6-3.3-9.4-7.9-10 10.1-24.3 16.1-53.3 15.3-79.6-0.4-12.1-2.2-25.3-10.9-33.6-4.9-4.6-11.3-7.2-17.7-9.2-21.9-6.9-49.4-14.4-71.9-6.1-14 5.2-26.7 18.1-38.9 26.7q-21.4 15-43.5 29-40.1-36.4-78.6-74.6-11 10.4-22 20.8c25.2 38.1 53.6 74.1 84.8 107.5 10.9 11.8 24.8-1.8 36.1-8z"/>
				<path id="&lt;Path&gt;" class="s14" d="m729.3 276.5c-6.4 29.4-10.8 59.2-13.3 89.2-2.2 27.1-5 55.9-2.3 83"/>
				<path id="&lt;Path&gt;" class="s12" d="m788.3 460.3c1.2-0.3 2.4-0.2 3.6-0.2 5.9 0.1 9-2.9 13.8-5.3 4.4-2.1 8.9-2.1 11.4-7.2 2-4.2 0.1-10.3-4.4-11.4 2.6-2 4.5-5.3 4.2-8.6-0.3-3.4-3.1-6-6.4-6.3 0.8-3-1.9-6.1-4.7-3.9-2.2 1.7-0.3 6.1-1.3 8.3-0.6 1.4-2 2.3-3.2 3-28.2 16.9-63.4 16.8-96 12.3-3.6-0.5-7.4-1.1-10.3-3.3-2.9-2.2-4.6-6.5-2.8-9.6-3.6-2.6-9.6 4.8-6.9 8.2 0.7 0.9 1.9 1.7 1.7 2.9-0.1 0.7-0.8 1.3-1.3 1.8-2.3 2.5-2 7 0.8 9.1-1.3 2.7 0 6.1 2.2 8.1 2.2 2 5.2 3 8 4q3.6 1.2 7.3 2.5c4.4 1.4 9.2 2.9 13.5 1.3 1.1-0.5 2.2-1.2 3.5-1.1 1 0.1 1.9 0.6 2.9 1.1 6.2 3.2 14.3 2.7 20.1-1.5 5.9 4 14.4 3.2 19.5-1.7 2.6 3.1 7 4.2 11 3.6 4-0.5 7.6-2.4 11-4.6 0.9-0.6 1.8-1.2 2.8-1.5z"/>
				<g id="&lt;Group&gt;">
					<path id="&lt;Path&gt;" class="s12" d="m714.2 244q-0.1 0.6-0.2 1.1c-0.3 1.5-0.5 3-0.2 4.5 0.3 1.5 1.1 2.9 2.5 3.5-2.7 2-3.3 6.2-1.4 8.9-1.9 1.3-3.1 3.6-2.9 5.9 0.2 5.8 8.9 9.5 13.5 11.3 16.7 6.7 35.5 5.3 53.2 2.2 2.8-0.5 5.7-1 8.2-2.5 2.4-1.4 4.5-3.9 4.6-6.8 0.1-2.8-2.3-5.8-5.2-5.6 2.4-1.8 1.6-6.2-1.1-7.1 5.5-5.1 5.6-14.8 0.4-20.1-0.8-0.7-1.7-1.5-2.8-1.4-0.7 0.1-1.3 0.5-1.9 0.9-18.1 11.9-44.5 9.5-62.9-0.8-0.3-0.2-0.7-0.4-1.1-0.4-0.6 0-1 0.6-1.3 1.1-0.9 1.7-1.1 3.5-1.4 5.3z"/>
					<g id="&lt;Group&gt;">
						<g id="&lt;Group&gt;" style="opacity: .47;mix-blend-mode: multiply">
							<path id="&lt;Path&gt;" class="s15" d="m720.9 253.7c0 0 0.8 0.4 2.4 1.1 0.7 0.4 1.7 0.8 2.8 1.2 1 0.5 2.3 0.9 3.6 1.3 1.4 0.5 2.9 0.9 4.4 1.3 1.6 0.5 3.3 0.8 5.1 1.1 1.7 0.4 3.5 0.7 5.4 0.9 1.8 0.3 3.7 0.4 5.6 0.5 1.9 0.1 3.8 0.2 5.7 0.2 1.8 0 3.7-0.1 5.4-0.2 1.8-0.1 3.5-0.2 5.2-0.4 1.6-0.2 3.1-0.3 4.5-0.6 2.9-0.4 5.2-0.9 6.8-1.3 1.7-0.4 2.6-0.6 2.6-0.6 0 0-0.9 0.3-2.4 1-0.8 0.3-1.8 0.6-2.9 1q-1.7 0.5-3.8 1c-1.4 0.4-3 0.7-4.6 1q-2.5 0.4-5.2 0.7c-1.8 0.1-3.7 0.3-5.6 0.3-1.9 0.1-3.9 0-5.8-0.1-2-0.2-3.9-0.3-5.8-0.6-1.9-0.2-3.7-0.7-5.5-1q-2.7-0.7-5.1-1.5c-1.5-0.5-3-1-4.4-1.6q-1-0.4-1.9-0.8-0.9-0.5-1.7-0.9c-1-0.6-1.9-1-2.6-1.5-1.4-0.9-2.2-1.5-2.2-1.5z"/>
						</g>
						<g id="&lt;Group&gt;" style="opacity: .47;mix-blend-mode: multiply">
							<path id="&lt;Path&gt;" class="s15" d="m779.1 268.2q0 0-0.5 0.4c-0.4 0.2-0.9 0.6-1.6 1q-1 0.6-2.5 1.4c-1.1 0.5-2.2 1-3.5 1.4-2.7 0.8-5.8 1.6-9.3 2-3.4 0.4-7.1 0.5-10.8 0.2-3.7-0.2-7.3-0.7-10.7-1.4-3.4-0.7-6.5-1.6-9.1-2.5-2.6-0.9-4.7-1.8-6.1-2.4-1.5-0.7-2.3-1.1-2.3-1.1 0 0 0.9 0.2 2.4 0.7 1.5 0.5 3.7 1 6.3 1.7 2.7 0.7 5.8 1.3 9.1 1.9 3.3 0.5 6.9 0.9 10.5 1.1 3.6 0.3 7.2 0.3 10.6 0 3.3-0.2 6.4-0.6 9-1.3 2.7-0.7 4.8-1.4 6.2-2q1.1-0.5 1.7-0.8 0.6-0.3 0.6-0.3z"/>
						</g>
						<g id="&lt;Group&gt;" style="opacity: .47;mix-blend-mode: multiply">
							<path id="&lt;Path&gt;" class="s15" d="m769.4 252.5c0 0 0.7-0.4 1.7-0.9 0.9-0.5 2.2-1 3.5-1.6 1.3-0.5 2.6-1 3.7-1.3 1-0.4 1.8-0.5 1.8-0.5 0 0-0.4 0.7-1.2 1.5-0.8 0.8-2.1 1.6-3.5 2.2-1.4 0.6-2.9 0.8-4.1 0.8-1.1 0-1.9-0.2-1.9-0.2z"/>
						</g>
					</g>
				</g>
			</g>
			<g id="&lt;Group&gt;">
				<g id="&lt;Group&gt;">
					<g id="&lt;Group&gt;">
						<path id="&lt;Path&gt;" class="s13" d="m595.5 164q0 0.3-0.1 0.7c-3.4 17.3-7 34.6-10.5 51.9-4.1 20.3-7.8 40.8-10.1 61.4-15.5 0.9-33-4.3-48.2-6.8q-18.8-3-37.6-6.3c-10.8-1.9-22.4-5.7-33.2-6.4-3.2-0.2 15.5-106.6 17.4-115.7 0.2-1 0.5-2.2 1.3-2.9 0.6-0.6 1.4-0.8 2.2-1.1 20.6-6.1 42.5-6.8 63.5-2.3 19 4 38.7 8.5 53.3 22.2 0.8 0.8 1.7 1.7 2 2.8 0.3 0.8 0.2 1.6 0 2.5z"/>
						<path id="&lt;Path&gt;" class="s16" d="m453.2 232.3c1.3-1.2 3.2-1.5 5-1.6 38.7-4 78.3 1.2 114.7 14.9 2.1 0.8 4.4 1.8 5.5 3.9 0.8 1.6 0.6 3.5 0.4 5.3q-1.6 14.3-3.1 28.5c-42.7 3.2-83.8-16.2-126.4-19.9-0.4-9 0.3-18.1 2.1-26.9 0.3-1.5 0.7-3.1 1.8-4.2z"/>
						<g id="&lt;Group&gt;">
							<g id="&lt;Group&gt;" style="opacity: .39;mix-blend-mode: multiply">
								<path id="&lt;Path&gt;" class="s3" d="m479.1 153.2c0 0 0.9-0.4 2.5-1.1q1.2-0.5 2.9-1.1c1.2-0.4 2.5-0.8 3.9-1.2 1.5-0.4 3-0.8 4.7-1.2 1.7-0.4 3.5-0.7 5.3-1 1.9-0.2 3.8-0.6 5.8-0.7 2-0.1 4-0.2 6-0.2 2 0 4 0 5.9 0.2 2 0 3.9 0.3 5.8 0.5 1.9 0.3 3.7 0.6 5.3 1 1.7 0.3 3.3 0.7 4.7 1.1 1.5 0.3 2.8 0.8 3.9 1.2q1.8 0.5 3 1c1.6 0.7 2.5 1 2.5 1 0 0-0.9-0.2-2.6-0.6-1.7-0.5-4.1-1-7-1.5-1.5-0.3-3-0.6-4.7-0.8-1.7-0.3-3.5-0.4-5.3-0.6-1.8-0.2-3.7-0.3-5.7-0.4-1.9-0.1-3.9-0.1-5.8-0.1-2 0-4 0-5.9 0.2-1.9 0.1-3.8 0.3-5.6 0.4-1.9 0.3-3.6 0.4-5.3 0.7-1.7 0.3-3.3 0.6-4.7 0.9-2.9 0.6-5.3 1.1-7 1.6-1.7 0.4-2.6 0.7-2.6 0.7z"/>
							</g>
							<g id="&lt;Group&gt;" style="opacity: .39;mix-blend-mode: multiply">
								<path id="&lt;Path&gt;" class="s3" d="m521.7 154.6c0 0 0.9-0.3 2.3-0.5 1.3-0.2 3.2-0.2 5 0.1 1.8 0.3 3.6 0.9 4.8 1.6 1.2 0.6 2 1.2 2 1.2 0 0-1 0-2.3-0.1-1.4-0.2-3.1-0.5-4.8-0.8-1.7-0.2-3.4-0.6-4.8-0.9-1.3-0.2-2.2-0.6-2.2-0.6z"/>
							</g>
							<g id="&lt;Group&gt;" style="opacity: .5;mix-blend-mode: multiply">
								<path id="&lt;Path&gt;" class="s17" d="m477.7 242.3c6.6-0.2 13.1 0.2 19.7 1 6.5 0.8 13 2 19.4 3.7l2.3 0.6 0.6 0.1c0.3 0.1 0.6 0.2 0.8 0.3 0.5 0.3 0.9 0.6 1.3 1.2 0.2 0.3 0.4 0.7 0.3 1.3q-0.1 0.4-0.3 0.6l-0.1 0.1v0.1l-0.1 0.1q-0.2 0.1-0.3 0.2c-0.8 0.4-1.4 0.3-1.8 0.3l-2.4-0.1c-3.3-0.2-6.5-0.3-9.8-0.2q-4.8 0.1-9.7 0.5c-3.2 0.4-6.5 0.7-9.7 1.3l-0.1-0.4 3.4 0.1-3.4 0.3v-0.4c3.2-0.8 6.4-1.5 9.7-2q4.8-0.7 9.8-1.1 4.9-0.2 9.9-0.1l2.4 0.1c0.4 0.1 0.7 0 0.7 0q0 0-0.1 0.1c0 0 0 0 0 0 0 0 0.1-0.1 0 0q0 0 0 0.1c-0.1 0.1 0 0.2 0 0.1-0.1-0.1-0.4-0.3-0.6-0.4-0.1-0.1-0.2-0.1-0.4-0.1l-0.6-0.2-2.3-0.6c-6.3-1.7-12.7-3-19.1-4.1-6.5-1.1-13-1.9-19.5-2.5z"/>
							</g>
							<g id="&lt;Group&gt;" style="opacity: .5;mix-blend-mode: multiply">
								<path id="&lt;Path&gt;" class="s17" d="m466.2 238.4c0 0 1.2-0.3 3.3-0.8q1.7-0.4 3.9-0.8 1.2-0.2 2.5-0.4c0.8-0.1 1.7-0.2 2.7-0.3 1.9-0.2 3.9-0.3 6.1-0.5 2.2-0.1 4.4-0.1 6.8-0.1 2.4 0.1 4.8 0.2 7.3 0.4 2.5 0.2 5 0.5 7.5 0.7 2.5 0.4 5 0.7 7.5 1.2 2.4 0.4 4.8 0.9 7.1 1.3 4.7 1 9 2 12.6 2.9 3.7 0.9 6.7 1.8 8.9 2.3 2.1 0.6 3.3 0.9 3.3 0.9 0 0-5-0.7-12.4-2.1-3.7-0.7-8-1.4-12.7-2.2-4.6-0.8-9.6-1.6-14.5-2.3-2.5-0.3-5-0.6-7.4-0.8-2.5-0.2-4.9-0.4-7.2-0.5-2.4-0.1-4.6-0.2-6.8-0.2-2.1 0-4.2 0-6 0.1q-2.9 0.1-5.1 0.4c-1.6 0.1-2.9 0.2-4 0.4-2.2 0.3-3.4 0.4-3.4 0.4z"/>
							</g>
						</g>
					</g>
					<g id="&lt;Group&gt;">
						<path id="&lt;Path&gt;" class="s13" d="m479.7 293.1q10.1 1.2 20.2 2.2c23.4 2.3 46.9 4.6 70.5 5.8 12.1 0.6 24.3 0 36.4 0 6.7 0 46.7 0.3 40.8-13.6-1.2-2.9-4.6-4.2-7.6-5.1-36.5-11.4-75.4-16.3-113.3-21.3-24.6-3.2-50-6.3-75.1-7.4-12.9-0.6-25.9-0.6-38.9 0.1-11.6 0.7-22.3 0.2-33.6 3.7-6.7 2-8.4 3.8-6.5 10.8 1.6 5.8 14.8 7.7 19.5 8.9 10.3 2.6 20.7 4.9 31.1 6.9 18.7 3.8 37.6 6.7 56.5 9z"/>
						<path id="&lt;Path&gt;" class="s18" d="m479.7 292.7q10.1 1.2 20.2 2.2c23.4 2.4 46.9 4.6 70.5 5.8 12.1 0.6 24.3 0 36.4 0 7.2 0 14.4-0.1 21.5-1 7.1-0.9 12.5-1.9 18.9-5-0.4-1.7-2.2-2.7-3.8-3.4-20.5-8.8-41.1-11.5-62.7-15.1-22.5-3.8-45.1-6.6-67.7-9.3-34.8-4.1-69.8-8.2-104.8-6.1-5.3 0.3-38.9 1.2-35.8 8.5 2.1 5 15.1 6.4 19.7 7.6 10.3 2.5 20.7 4.8 31.1 6.9 18.7 3.7 37.6 6.6 56.5 8.9z"/>
					</g>
				</g>
				<g id="&lt;Group&gt;">
					<g id="&lt;Group&gt;">
						<path id="&lt;Path&gt;" class="s19" d="m579.9 200.6c4.4 0.4 6.2 5.8 9.4 8.9 2.1 2 4.9 3.1 7.1 5 3.1 2.7 4.7 6.8 6.1 10.7q2.8 7.7 5.5 15.5c0.4 1 0.8 2.1 0.6 3.1-0.3 1.2-1.3 2.2-1.8 3.3-1.7 3.7 1.5 7.5 4.1 10.6 0.4 0.5 0.9 1.1 0.9 1.8 0 1-0.8 1.7-1.5 2.3q-9.8 7.7-19.8 15.1-4.1-5.7-8.1-11.4c-0.6-0.8-1.3-1.7-2.3-2.1-1.5-0.7-3.2 0.1-4.9 0.3-8.9 1.1-10.7-10.4-17-13.7-1.3-0.8-2.9-1.3-3.8-2.5-1.4-1.9-0.6-4.7 0.9-6.7-1.8-0.2-2.8-2.2-2.6-4 0.2-1.7 1.4-3.2 2.7-4.4-2.4-0.7-3.6-3.6-3.2-6 0.4-2.5 2-4.5 3.5-6.5-1.2 0.2-2.5-0.5-3.1-1.5-1.7-3 1.2-8.9 3.8-10.4 3.4-2 7.8-0.1 11.6-1.2 4.3-1.3 7.3-6.6 11.9-6.2z"/>
						<g id="&lt;Group&gt;" style="mix-blend-mode: multiply">
							<path id="&lt;Path&gt;" class="s15" d="m563.7 206.9c0 0 0.5-0.2 1.4-0.3 0.9-0.2 2.1-0.4 3.6-0.5 1.5-0.2 3.3-0.2 5.2-0.1 1 0.1 2 0.1 3 0.3 1 0.1 2 0.3 3 0.5 1 0.2 2 0.4 2.9 0.7 1 0.2 1.9 0.6 2.8 0.9 1.8 0.7 3.4 1.4 4.8 2.1 1.4 0.7 2.4 1.3 3.2 1.8 0.7 0.4 1.2 0.7 1.2 0.7 0 0-0.5-0.1-1.4-0.4-0.8-0.3-2-0.6-3.4-1.1-2.9-0.9-6.7-2-10.5-2.8-3.9-0.8-7.8-1.2-10.8-1.5-1.5-0.1-2.7-0.2-3.6-0.2-0.9-0.1-1.4-0.1-1.4-0.1z"/>
						</g>
						<g id="&lt;Group&gt;" style="mix-blend-mode: multiply">
							<path id="&lt;Path&gt;" class="s15" d="m568.3 210c-0.5 0.4-0.9 0.8-1.3 1.2q-0.7 0.7-1.1 1.4-0.5 0.8-0.8 1.6-0.3 0.8-0.5 1.7c-0.2 1.1-0.2 2.2 0 3.4q0.1 0.8 0.4 1.6 0.3 0.7 0.8 1.4l0.4 0.6-0.6 0.5q-0.6 0.6-1 1.2-0.5 0.7-0.8 1.4c-0.5 1-0.8 2-0.9 3.1q-0.1 0.8 0 1.6 0 0.8 0.2 1.5 0.2 0.8 0.5 1.5 0.3 0.8 0.7 1.4l0.5 0.7-0.6 0.5c-1.5 1.5-1.7 4.5-0.1 6.1l0.7 0.7-0.7 0.4c-0.6 0.3-1 0.8-1.3 1.4-0.2 0.5-0.3 1.2-0.2 1.8 0 0.4 0.1 0.7 0.3 1q0.2 0.5 0.6 0.9c0.5 0.4 1.1 0.8 1.9 1-0.8 0-1.6-0.2-2.2-0.7q-0.5-0.4-0.8-0.9c-0.3-0.3-0.5-0.7-0.6-1-0.3-0.9-0.3-1.7 0-2.5 0.3-0.8 0.8-1.6 1.5-2.1l-0.1 1c-2.4-2-2.6-6-0.3-8.4l-0.1 1.2q-0.6-0.8-1-1.7-0.4-0.9-0.6-1.8c-0.3-1.3-0.4-2.6-0.3-3.9 0.2-1.2 0.6-2.5 1.1-3.7q0.5-0.8 1.1-1.6 0.6-0.7 1.4-1.4l-0.2 1.2q-0.5-0.9-0.9-1.9-0.2-1-0.3-2-0.1-0.9 0-1.9 0.1-1 0.4-1.9 0.3-1 0.7-1.8 0.5-0.8 1.1-1.6 0.7-0.7 1.4-1.3c0.5-0.4 1.1-0.6 1.6-0.9z"/>
						</g>
					</g>
					<path id="&lt;Path&gt;" class="s20" d="m806.6 298.1q-0.5-3-1.4-6.1c-1.2-4.2-3.1-8.5-6.5-11.3-3.4-2.9-8.1-4-12.6-4-8.5 0-16 3.2-23.1 7.7-7.7 4.7-75.8 57-77.7 54.7q-31.7-36.3-63.5-72.6c-0.4-0.5-0.8-1-1.4-1-0.7-0.1-1.2 0.3-1.7 0.6q-11.2 8.4-21.6 17.7c-1.8 1.6-3.7 3.4-4.2 5.8-0.5 2 0.2 4.1 0.8 6.1 5.6 15.7 14.8 29.7 24.2 43.5 10.8 15.8 22 31.4 35.6 44.9 3.2 3.1 6.5 6.2 10.7 7.7 4.8 1.6 10.1 1 15.1 0 24.2-4.7 46.3-16.3 68.9-26.3 27.9-12.3 63.9-32.5 58.4-67.4z"/>
					<path id="&lt;Path&gt;" class="s12" d="m588.1 271.4c1.3-0.7 2.7-1.2 3.7-2.3 0.8-0.9 1.3-2.1 1.8-3.2 1.4-2.5 3.8-4.5 6.5-5.3 1.3-0.4 2.8-0.6 4-1.2 3.5-1.7 5.1-6.7 9-7.2 1.5-0.1 3.1 0.5 4.5-0.1 1-0.4 1.6-1.3 2.5-1.9 1.6-1 3.8-0.5 5.3 0.6 4.3 3.3 14 15.6 14 21.3 0.1 2.2-2.3 4.4-4.3 3.3 0.9 0.2 1.3 1.3 1.1 2.1-0.3 0.8-0.9 1.4-1.7 1.8-3.1 2-6.5 0-9.4 1.8-2.4 1.5-3 5.5-5.1 7.4-1.7 1.7-4.3 2.2-6.4 3.4-1.9 1-3.4 2.7-4.8 4.3q-4.7 5.1-9.4 10.3c-0.7 0.8-1.5 1.6-2.5 1.8-0.7 0.1-1.4 0-2-0.2-3.8-1.1-6.9-4.4-7.7-8.3-0.3-1.3-0.3-2.6-0.8-3.8-0.6-1.4-1.7-2.4-2.6-3.5-5.1-6.4-2.9-17.2 4.3-21.1z"/>
					<g id="&lt;Group&gt;">
						<g id="&lt;Group&gt;" style="opacity: .48;mix-blend-mode: multiply">
							<path id="&lt;Path&gt;" class="s21" d="m679.9 331q0 0 0.4 0.4c0.3 0.3 0.7 0.7 1.2 1.2 0.5 0.6 1.1 1.3 1.7 2.2 0.6 0.8 1.2 1.8 1.8 3q0.9 1.7 1.7 3.8 0.8 2 1.5 4.4c0.8 3.1 1.3 6.5 1.6 9.9 0.3 3.4 0.4 6.8 0.3 10-0.1 3.3-0.7 6.3-1.4 8.7-0.8 2.5-1.9 4.4-2.8 5.6-0.3 0.7-0.9 1.1-1.3 1.2-0.4 0-0.6-0.2-0.6-0.2 0 0 0.2 0.2 0.6 0.1 0.4-0.2 0.7-0.6 1-1.3 0.4-0.6 0.7-1.4 1.1-2.4 0.3-0.9 0.6-2.1 0.9-3.3 0.5-2.4 0.7-5.3 0.7-8.4 0-3.1-0.2-6.5-0.5-9.8-0.5-6.7-1.8-13.3-3.8-17.9q-0.7-1.7-1.5-3c-0.4-1-0.9-1.7-1.3-2.3-0.8-1.2-1.3-1.9-1.3-1.9z"/>
						</g>
						<g id="&lt;Group&gt;" style="opacity: .48;mix-blend-mode: multiply">
							<path id="&lt;Path&gt;" class="s21" d="m693.1 344.7c0 0 0.2 0.3 0.6 0.7 0.4 0.4 1 1.1 1.6 1.9 0.6 0.9 1.1 2 1.6 3.2 0.5 1.2 0.8 2.6 1.1 4 0 0.7 0.1 1.4 0.2 2.1 0 0.6-0.1 1.3-0.1 2-0.1 1.3-0.3 2.5-0.6 3.5-0.3 1-0.7 1.8-0.9 2.3-0.3 0.5-0.5 0.8-0.5 0.8 0 0 0-0.3 0.1-0.9 0-0.6 0.1-1.4 0.1-2.4q0.1-0.8 0.1-1.6c0-0.6-0.1-1.2 0-1.8-0.1-1.2-0.2-2.5-0.4-3.7-0.2-1.3-0.5-2.6-0.8-3.7-0.3-1.2-0.6-2.3-0.9-3.2q-0.5-1.5-0.9-2.3c-0.2-0.6-0.3-0.9-0.3-0.9z"/>
						</g>
						<g id="&lt;Group&gt;" style="opacity: .48;mix-blend-mode: multiply">
							<path id="&lt;Path&gt;" class="s21" d="m748.9 310.9c0 0 0.5 0.4 1.2 1 0.8 0.6 2 1.4 3.4 2.4 2.9 1.8 6.8 3.9 11 5.4 2.2 0.7 4.3 1.3 6.4 1.7 2 0.4 3.9 0.6 5.6 0.4 1.6-0.1 3-0.5 3.9-0.9 0.8-0.4 1.3-0.8 1.3-0.8q0 0-0.3 0.3c-0.1 0.2-0.4 0.5-0.8 0.8-0.8 0.6-2.2 1.4-3.9 1.8-1.8 0.4-3.9 0.4-6.1 0.1-2.2-0.2-4.5-0.8-6.7-1.5q-1.7-0.6-3.2-1.4c-1.1-0.4-2.1-1-3-1.5-1.9-1.1-3.6-2.4-4.9-3.5-1.3-1.2-2.2-2.3-2.9-3-0.7-0.8-1-1.3-1-1.3z"/>
						</g>
						<g id="&lt;Group&gt;" style="opacity: .48;mix-blend-mode: multiply">
							<path id="&lt;Path&gt;" class="s21" d="m775.7 307.1c0 0 0.9-0.3 2.1-0.5 1.1-0.4 2.7-0.7 4.2-1.2 1.5-0.4 3-0.9 4.2-1.2 1.1-0.4 2-0.6 2-0.6 0 0-0.5 0.8-1.5 1.6-1 0.8-2.5 1.7-4.2 2.1-0.8 0.3-1.7 0.4-2.5 0.5-0.8 0-1.5 0-2.2-0.1-1.3-0.2-2.1-0.6-2.1-0.6z"/>
						</g>
						<g id="&lt;Group&gt;" style="opacity: .48;mix-blend-mode: multiply">
							<path id="&lt;Path&gt;" class="s21" d="m626.6 330.1c0 0 0.1-0.5 0.2-1.3 0.2-0.7 0.4-1.9 0.8-3.2 0.4-1.3 1-2.8 1.7-4.4 0.7-1.6 1.7-3.1 2.7-4.7 0.6-0.7 1.1-1.5 1.7-2.2 0.5-0.7 1.1-1.3 1.7-2 1.2-1.2 2.4-2.3 3.5-3.2 1.1-0.8 2-1.4 2.7-1.9 0.7-0.3 1.1-0.6 1.1-0.6 0 0-1.2 1.4-3 3.4-1.8 2-4.1 4.7-6 7.6-1.1 1.5-2 3-2.8 4.4-0.9 1.5-1.6 2.8-2.2 4-1.2 2.5-2.1 4.1-2.1 4.1z"/>
						</g>
						<g id="&lt;Group&gt;" style="opacity: .48;mix-blend-mode: multiply">
							<path id="&lt;Path&gt;" class="s21" d="m622.1 312.1c0 0 0.1-1.1 0.6-2.5 0.3-0.7 0.7-1.5 1.2-2.3 0.5-0.8 1.1-1.6 1.8-2.4 0.7-0.7 1.5-1.3 2.3-1.9 0.8-0.5 1.6-0.9 2.3-1.2 1.4-0.5 2.5-0.6 2.5-0.6 0 0-0.8 0.7-1.9 1.6-1.1 1-2.5 2.2-3.8 3.5-1.3 1.4-2.5 2.8-3.4 3.9-0.9 1.1-1.6 1.9-1.6 1.9z"/>
						</g>
					</g>
				</g>
			</g>
		</g>
		<g id="&lt;Group&gt;">
			<path id="&lt;Path&gt;" class="s12" d="m290.1 791.2c-17.7-26-26.1-58.1-24.2-89.4 3.6-59.6 40.4-109.3 88.5-142.1-12.5-25.7-6-59.9 7.1-84.3 11.9-21.9 31.3-39.7 54.2-49.6-23.8-11.6-32.5-40.4-33.1-65.6-0.7-28.4 11.9-55.9 34.3-73.4 22.4-17.6 56.8-20.8 84.6-18.8 24.3 1.8 49 11.2 64.7 29.8 5.1 6.1 9.1 13 12.2 20.3 14.7 34.6 5.3 74.3-17.5 103 2.5-3.1 25.5 14.4 28 16.6 8.3 7.6 15 16.9 19.8 27.1 12.3 26.1 12.4 56.4 1.2 83 1.2-2.9 44.5 33.2 47.9 36.9 14 15.2 25.5 32.7 33.9 51.7 17.4 39.7 17.6 83.5 5.6 124.9-9 30.8-25.1 59.6-46.1 83.8-1.4 1.6-2.9 3.2-4.9 3.7-2.2 0.7-4.6-0.1-6.8-0.9-28.8-10-60.4-9.8-90.3-3.8-29.8 6.1-58.3 17.6-86.1 30.1-3.1 1.5-6.4 2.9-9.8 2.9-2.9-0.1-5.6-1.1-8.2-2.2-14-5.5-28-11.1-41.9-17-13.8-5.8-26.8-7.5-41.2-10.8-29.3-6.8-55.5-31.8-71.9-55.9z"/>
			<g id="&lt;Group&gt;">
				<g id="&lt;Group&gt;">
					<path id="&lt;Path&gt;" class="s22" d="m361.7 568.4c0 0 1.6 1.6 4.3 4.5 0.8 0.7 1.5 1.6 2.4 2.4q1.3 1.2 2.9 2.6 1.5 1.3 3.3 2.9 1.9 1.4 3.9 2.9c1.4 1 2.7 2.2 4.3 3.1q2.3 1.5 4.8 3.1c1.6 1.1 3.4 2 5.2 2.9 1.8 1 3.6 2.1 5.6 3 3.8 1.7 7.8 3.6 12 5.1 4.1 1.7 8.5 2.9 12.9 4.3 4.4 1.1 8.7 2.5 13.1 3.2 4.4 1 8.8 1.6 13 2.2 2.1 0.3 4.2 0.4 6.2 0.6 2.1 0.2 4 0.5 6 0.5 3.9 0.2 7.6 0.5 11 0.4q2.6-0.1 4.9-0.1c1.6 0 3-0.1 4.4-0.2 2.8-0.2 5.2-0.3 7.2-0.5 4-0.5 6.3-0.7 6.3-0.7 0 0-2.3 0.4-6.2 1.1-2 0.3-4.4 0.6-7.2 0.8-1.4 0.2-2.9 0.4-4.4 0.5q-2.4 0.1-5 0.2c-3.4 0.2-7.1 0.1-11.1 0-1.9 0-4-0.2-6-0.3-2.1-0.2-4.2-0.3-6.3-0.6-4.3-0.6-8.7-1.1-13.1-2-4.5-0.8-8.9-2.1-13.4-3.1-4.4-1.5-8.8-2.7-13-4.5-4.2-1.6-8.2-3.6-12.1-5.4-2-0.9-3.8-2-5.6-3-1.8-1.1-3.6-2-5.2-3.2q-2.4-1.7-4.7-3.2c-1.6-1-2.9-2.3-4.3-3.3q-2-1.6-3.8-3.1-1.7-1.6-3.2-3.1-1.5-1.5-2.8-2.7c-0.9-0.9-1.6-1.8-2.2-2.5-2.6-3.1-4.1-4.8-4.1-4.8z"/>
				</g>
				<g id="&lt;Group&gt;">
					<path id="&lt;Path&gt;" class="s22" d="m455.4 602.6c0 0 2.5 0.2 6.8 0.6 1.1 0.1 2.3 0.2 3.6 0.3q2 0.1 4.3 0.1 2.3 0.1 4.8 0.2c1.7 0 3.5-0.1 5.4-0.1 1.8 0 3.8 0 5.8-0.1q3-0.2 6.2-0.5 1.6-0.1 3.2-0.2 1.6-0.2 3.3-0.4c2.2-0.4 4.5-0.6 6.8-0.9 4.6-0.8 9.3-1.6 14.1-2.8 4.7-1 9.5-2.5 14.3-3.8 4.6-1.6 9.4-3.1 13.9-4.9 4.6-1.7 8.9-3.8 13.2-5.7q3.1-1.6 6.1-3.1 3.1-1.4 5.8-3 2.9-1.6 5.5-3c1.7-1 3.4-2.1 4.9-3.1q2.4-1.4 4.6-2.8 2.1-1.4 4-2.7c2.5-1.7 4.7-3.2 6.4-4.5 3.5-2.6 5.6-4.1 5.6-4.1 0 0-2 1.6-5.3 4.4-1.7 1.4-3.8 3-6.3 4.8q-1.8 1.4-3.9 2.9c-1.4 1-2.9 1.9-4.4 3-1.6 1-3.2 2.1-5 3.2q-2.6 1.5-5.3 3.2-2.8 1.7-5.8 3.2-3 1.6-6.2 3.2c-4.2 1.9-8.6 4-13.2 5.8-4.5 1.9-9.3 3.4-14.1 5.1-4.8 1.3-9.6 2.8-14.4 3.7-4.8 1.2-9.6 1.9-14.3 2.7-2.3 0.3-4.6 0.5-6.8 0.8q-1.7 0.1-3.4 0.3-1.6 0.1-3.2 0.2-3.3 0.1-6.3 0.3c-2 0-4-0.1-5.8-0.1-1.9 0-3.7 0-5.4-0.1q-2.6-0.2-4.9-0.3-2.2-0.2-4.2-0.4c-1.3-0.1-2.5-0.3-3.6-0.4-4.3-0.7-6.8-1-6.8-1z"/>
				</g>
				<g id="&lt;Group&gt;">
					<path id="&lt;Path&gt;" class="s22" d="m613.5 558.2c0 0-0.4 0.5-1.1 1.5-0.7 0.9-1.7 2.2-3 3.7-1.2 1.5-2.8 3.2-4.6 4.9-1.8 1.8-3.8 3.5-5.9 5.2-2.1 1.6-4.2 3.2-6.3 4.5-2.1 1.4-4.1 2.5-5.8 3.4-1.8 1-3.3 1.6-4.3 2.1-1.1 0.5-1.7 0.7-1.7 0.7 0 0 2.1-1.5 5.4-3.7 3.2-2.3 7.4-5.3 11.5-8.6 4.1-3.2 8-6.6 10.9-9.3 2.9-2.6 4.9-4.4 4.9-4.4z"/>
				</g>
				<g id="&lt;Group&gt;">
					<path id="&lt;Path&gt;" class="s22" d="m297.2 710.1c0 0 0-1.5-0.1-4.2q0-2 0.1-4.8c0.1-1.9 0.1-4 0.4-6.3q0.1-1.7 0.3-3.6 0.3-1.8 0.6-3.8c0.3-2.6 0.9-5.3 1.5-8.1 0.8-2.8 1.4-5.7 2.4-8.6 0.8-2.9 2-5.8 3.1-8.7 1.2-2.8 2.4-5.6 3.8-8.3 1.4-2.7 2.9-5.3 4.3-7.8 1.6-2.4 3-4.8 4.6-6.9q1.2-1.6 2.3-3.1 1.2-1.4 2.2-2.8c1.4-1.8 2.9-3.4 4.1-4.8q1.9-2.1 3.3-3.5c1.9-1.9 3-3 3-3 0 0-1 1.2-2.7 3.3q-1.3 1.5-3 3.7c-1.1 1.5-2.4 3.1-3.8 5q-1 1.4-2.1 2.9-1 1.5-2 3.1c-1.5 2.2-2.8 4.6-4.4 7-1.3 2.5-2.8 5-4.1 7.8-1.4 2.6-2.5 5.4-3.7 8.2-1.1 2.8-2.3 5.6-3.1 8.5-1 2.8-1.7 5.6-2.5 8.4-0.6 2.8-1.4 5.4-1.8 8q-0.4 1.9-0.7 3.7-0.3 1.8-0.5 3.5c-0.4 2.3-0.6 4.4-0.8 6.2q-0.3 2.8-0.4 4.8c-0.2 2.7-0.3 4.2-0.3 4.2z"/>
				</g>
				<g id="&lt;Group&gt;">
					<path id="&lt;Path&gt;" class="s22" d="m332.1 646.1c0 0 0.1-0.4 0.4-1.3 0.3-0.8 0.7-1.9 1.3-3.3 0.6-1.4 1.4-2.9 2.3-4.5 0.9-1.6 1.9-3.3 3-4.9 1.2-1.6 2.4-3.2 3.6-4.6 1.3-1.3 2.5-2.6 3.6-3.6 1-1 2-1.8 2.7-2.3 0.7-0.5 1.1-0.8 1.1-0.8 0 0-0.3 0.4-0.8 1.1-0.6 0.7-1.3 1.6-2.2 2.8-1.8 2.3-4.1 5.4-6.3 8.5-2.3 3.2-4.4 6.4-6 8.9-0.8 1.2-1.5 2.2-1.9 2.9-0.5 0.7-0.8 1.1-0.8 1.1z"/>
				</g>
				<g id="&lt;Group&gt;">
					<path id="&lt;Path&gt;" class="s22" d="m531.5 819.2c0 0 1.7-0.4 4.7-0.9 1.5-0.2 3.3-0.6 5.4-1.1q1.5-0.4 3.2-0.8 1.8-0.5 3.6-1.1c1.3-0.4 2.6-0.7 3.9-1.1q2-0.8 4.1-1.5c1.4-0.5 2.8-1.1 4.2-1.7 1.5-0.7 2.9-1.2 4.4-1.9 2.9-1.4 6-2.8 8.9-4.5 3-1.6 5.9-3.6 8.8-5.4 2.8-2 5.7-3.9 8.3-6.1 2.7-2.1 5.2-4.4 7.6-6.5 1.2-1.1 2.2-2.3 3.4-3.4 1.1-1.1 2.2-2.1 3.1-3.3q1.5-1.6 3-3.2c0.9-1 1.7-2.1 2.5-3.1q1.2-1.6 2.3-2.9 1.1-1.5 2-2.8c1.3-1.7 2.3-3.2 3.1-4.5 1.6-2.6 2.6-4 2.6-4 0 0-0.8 1.5-2.3 4.2-0.7 1.4-1.6 2.9-2.8 4.7q-0.8 1.4-1.8 2.9c-0.7 1-1.4 2-2.2 3.1-0.8 1-1.6 2.1-2.5 3.2q-1.3 1.7-2.8 3.4c-0.9 1.2-2 2.3-3 3.5q-1.7 1.7-3.4 3.4c-2.5 2.3-4.9 4.6-7.6 6.7-2.6 2.3-5.6 4.3-8.4 6.3-3 1.9-5.9 3.8-9 5.4-3 1.7-6.1 3.1-9.1 4.5-1.5 0.7-3 1.2-4.5 1.8-1.4 0.6-2.9 1.1-4.3 1.5q-2.2 0.7-4.2 1.4c-1.4 0.4-2.7 0.7-4 1-1.3 0.3-2.5 0.7-3.6 0.9q-1.8 0.3-3.4 0.6c-2.1 0.4-3.9 0.7-5.4 0.8-3.1 0.3-4.8 0.5-4.8 0.5z"/>
				</g>
				<g id="&lt;Group&gt;">
					<path id="&lt;Path&gt;" class="s22" d="m608.1 789.5c0 0 0.5-0.8 1.2-2 0.8-1.2 1.8-2.6 3-4.1 1.1-1.4 2.3-2.7 3.3-3.7 1-1 1.7-1.6 1.7-1.6 0 0-0.2 0.9-0.8 2.2-0.5 1.3-1.5 2.9-2.7 4.4-1.1 1.4-2.5 2.7-3.6 3.6-1.2 0.8-2.1 1.2-2.1 1.2z"/>
				</g>
				<g id="&lt;Group&gt;">
					<path id="&lt;Path&gt;" class="s22" d="m622 588.8c0 0 0.6 0.3 1.6 0.7q0.8 0.3 1.9 0.9c0.7 0.4 1.5 0.9 2.3 1.4 1.7 1.1 3.4 2.7 5.2 4.4 0.8 0.9 1.7 1.9 2.5 2.9 0.8 1 1.5 2.1 2.3 3.2 0.7 1.1 1.4 2.2 2 3.4 0.7 1.1 1.2 2.3 1.7 3.4 1 2.2 1.9 4.3 2.5 6.2 0.7 1.8 1.1 3.4 1.4 4.5 0.3 1.1 0.4 1.8 0.4 1.8 0 0-0.3-0.6-0.8-1.6-0.4-1.1-1.2-2.5-2-4.3q-0.7-1.3-1.4-2.8c-0.5-1-1.1-2-1.7-3-1.1-2.1-2.4-4.4-3.8-6.5-0.7-1.1-1.4-2.1-2.2-3.1q-1.1-1.5-2.2-2.9c-0.8-0.9-1.6-1.8-2.4-2.5-0.7-0.8-1.5-1.5-2.2-2.2q-1.1-0.9-2-1.6-0.9-0.8-1.6-1.2c-1-0.7-1.5-1.1-1.5-1.1z"/>
				</g>
				<g id="&lt;Group&gt;">
					<path id="&lt;Path&gt;" class="s22" d="m646 598.1c0 0 0.8 0.4 1.8 1.3 1.1 0.8 2.2 2.1 3.2 3.5 0.9 1.5 1.7 3.1 2 4.3 0.4 1.3 0.5 2.2 0.5 2.2 0 0-0.7-0.6-1.5-1.6-0.8-1-1.7-2.4-2.7-3.8-0.9-1.3-1.7-2.8-2.3-3.9-0.6-1.1-1-2-1-2z"/>
				</g>
				<g id="&lt;Group&gt;">
					<path id="&lt;Path&gt;" class="s22" d="m368.5 514.1c0 0 0-0.7 0-1.9q0-0.9 0.1-2.2c0-0.9 0.1-1.9 0.2-2.9q0.2-1.6 0.5-3.4c0.2-1.2 0.5-2.4 0.8-3.7 0.4-1.3 0.7-2.6 1.2-3.9 0.5-1.3 1.1-2.6 1.6-3.9 0.6-1.3 1.2-2.6 1.8-3.8 0.7-1.2 1.4-2.4 2.1-3.5 1.5-2.2 2.9-4.2 4.3-5.8 0.7-0.8 1.4-1.5 2-2.1q0.9-0.9 1.6-1.5c0.9-0.9 1.4-1.3 1.4-1.3 0 0-0.4 0.6-1.1 1.5-0.8 1-1.8 2.4-2.9 4.1-0.6 0.9-1.2 1.8-1.9 2.8-0.6 1-1.2 2.1-1.9 3.2-1.2 2.2-2.5 4.7-3.6 7.2-1.1 2.5-2.1 5.1-2.9 7.5-0.3 1.2-0.8 2.4-1 3.6-0.4 1.1-0.7 2.2-0.9 3.2-0.5 2-0.8 3.7-1 4.9-0.2 1.2-0.4 1.9-0.4 1.9z"/>
				</g>
				<g id="&lt;Group&gt;">
					<path id="&lt;Path&gt;" class="s22" d="m389.4 483.4c0 0-0.2-0.6-0.1-1.5 0.1-0.9 0.6-2 1.3-2.9 0.8-1 1.8-1.6 2.6-1.9 0.9-0.4 1.5-0.3 1.5-0.3 0 0-0.3 0.5-0.8 1.2-0.5 0.6-1.1 1.4-1.7 2.2-0.6 0.8-1.3 1.6-1.8 2.2-0.5 0.6-1 1-1 1z"/>
				</g>
			</g>
			<g id="&lt;Group&gt;">
				<g id="&lt;Group&gt;">
					<path id="&lt;Path&gt;" class="s16" d="m609.2 719.2c1.7-13.4 4.4-26.5 3.8-39.9q-1.2-24.2-4-48.3c-3.7-31.6-9.5-63-17.3-93.8-1.6-6.3-29.6-104.3-34.1-103.1-8.7 2.5-16.8 6.8-25.6 8.5-3.1 0.7-31 5.6-32 3 15.6 41.5 29 85 36.5 128.7 7.4 43.4 7.2 89.2 3.5 132.9-0.7 8.4-1.4 17.5 3.2 24.6 2.6 4 6.8 6.9 11.2 8.9 4.6 2.1 9.9 3.5 14.8 2.1 4.9-1.3 9.2-5.9 8.8-10.9 7.1 1 14.5 1.1 21.7 0.2 1.8-0.3 3.7-0.6 5.2-1.7 2.7-1.8 3.4-5.4 3.9-8.6q0.2-1.3 0.4-2.6z"/>
					<g id="&lt;Group&gt;">
						<g id="&lt;Group&gt;" style="opacity: .54;mix-blend-mode: multiply">
							<path id="&lt;Path&gt;" class="s18" d="m575.3 729.9c0 0-0.8-2.1-2.2-5.6-0.3-0.9-0.7-1.9-1.1-3q-0.4-1.7-1-3.6-0.6-1.9-1.2-4.1c-0.3-1.4-0.6-3-0.9-4.6-0.3-1.6-0.8-3.3-1-5q-0.3-2.7-0.7-5.5c-0.3-1.8-0.4-3.8-0.6-5.7-0.2-2-0.4-4-0.4-6.1-0.2-4.1-0.3-8.3-0.3-12.6 0-4.3 0.1-8.7 0.2-13 0.4-8.7 0.7-17.4 1.1-25.6 0-4.1 0.3-8 0.2-11.8 0.1-3.7 0.1-7.2 0-10.5q-0.1-2.4-0.2-4.7-0.1-2.2-0.3-4.2c-0.1-2.6-0.3-4.9-0.5-6.8-0.5-3.8-0.7-6-0.7-6 0 0 0.4 2.2 1 5.9 0.4 1.9 0.7 4.2 1 6.9q0.2 1.9 0.5 4.2c0.1 1.5 0.2 3 0.3 4.7 0.2 3.2 0.3 6.8 0.4 10.5 0.1 3.8 0.1 7.7 0 11.8-0.2 8.2-0.5 16.9-0.8 25.6-0.1 4.4-0.3 8.7-0.3 13-0.1 4.3 0 8.5 0.1 12.6 0 2 0.3 4 0.3 6 0.1 1.9 0.2 3.8 0.4 5.7q0.3 2.8 0.6 5.4c0.2 1.7 0.5 3.4 0.8 5q0.4 2.4 0.8 4.6 0.5 2.2 0.9 4.1 0.5 1.9 0.9 3.6c0.2 1.1 0.6 2.1 0.9 3 1.1 3.7 1.8 5.8 1.8 5.8z"/>
						</g>
						<g id="&lt;Group&gt;" style="opacity: .54;mix-blend-mode: multiply">
							<path id="&lt;Path&gt;" class="s18" d="m523.3 476.1c0 0 0.3 0.6 0.8 1.6 0.4 1 1.1 2.4 1.9 4.2 1.4 3.5 3.3 8.2 4.9 12.9 1.7 4.8 3.2 9.6 4.2 13.2 0.5 1.8 0.9 3.4 1.2 4.4 0.2 1.1 0.3 1.7 0.3 1.7 0 0-0.3-0.5-0.7-1.5-0.5-1-1.2-2.5-1.9-4.2-1.5-3.5-3.3-8.2-5-12.9-1.6-4.8-3.1-9.6-4.1-13.2-0.5-1.9-0.9-3.4-1.2-4.5-0.2-1-0.4-1.7-0.4-1.7z"/>
						</g>
						<g id="&lt;Group&gt;" style="opacity: .54;mix-blend-mode: multiply">
							<path id="&lt;Path&gt;" class="s18" d="m543.6 480.3c0 0 1.5 2.9 3.9 8.1 2.3 5.3 5.7 12.7 9.1 22 1.7 4.6 3.4 9.7 5 15.1 0.8 2.7 1.6 5.4 2.3 8.3 0.8 2.9 1.6 5.8 2.2 8.8 0.6 3 1.4 6.1 1.9 9.2q0.9 4.7 1.7 9.4 0.7 4.8 1.5 9.7 0.6 4.9 1.2 9.7 0.4 4.9 0.9 9.8 0.3 4.9 0.7 9.8c0.3 6.4 0.6 12.7 0.8 18.9 0.2 6.1 0.2 12.1 0.2 17.7 0 5.6-0.1 11-0.2 15.9-0.2 9.8-0.5 18-0.7 23.7-0.2 5.7-0.4 9-0.4 9 0 0 0-13.1 0-32.7 0-5-0.1-10.3-0.2-15.9-0.1-5.6-0.3-11.5-0.5-17.7-0.2-6.1-0.5-12.4-0.9-18.8q-0.4-4.8-0.8-9.7-0.4-4.9-0.9-9.7-0.6-4.9-1.1-9.8-0.7-4.8-1.4-9.6-0.8-4.7-1.6-9.4c-0.6-3.1-1.3-6.1-1.9-9.1-0.6-3-1.4-5.9-2.1-8.8-0.6-2.8-1.4-5.6-2.1-8.3-1.5-5.5-3.1-10.5-4.7-15.1-3.2-9.3-6.2-16.9-8.4-22.2-2.2-5.3-3.5-8.3-3.5-8.3z"/>
						</g>
						<g id="&lt;Group&gt;" style="opacity: .54;mix-blend-mode: multiply">
							<path id="&lt;Path&gt;" class="s17" d="m597.1 718.9c0 0-0.3-0.4-0.7-1.2-0.3-0.8-0.9-1.8-1.4-3.2-0.5-1.4-1-3-1.5-4.7-0.5-1.8-0.9-3.7-1.3-5.6-0.2-1.9-0.5-3.8-0.6-5.6-0.1-1.9-0.1-3.6 0-5 0.1-1.5 0.2-2.7 0.3-3.5 0.1-0.8 0.2-1.3 0.2-1.3 0 0 0.1 0.5 0.2 1.3 0.1 0.8 0.3 2 0.5 3.5 0.3 2.8 0.8 6.6 1.4 10.3 0.6 3.7 1.3 7.5 1.9 10.3 0.3 1.4 0.5 2.6 0.7 3.4 0.2 0.8 0.3 1.3 0.3 1.3z"/>
						</g>
						<g id="&lt;Group&gt;" style="opacity: .54;mix-blend-mode: multiply">
							<path id="&lt;Path&gt;" class="s17" d="m557.4 474.8c0 0 0.4 0.2 0.8 0.5 0.4 0.4 0.7 0.9 0.9 1.5 0.1 0.6 0.1 1.2 0 1.7-0.1 0.5-0.3 0.9-0.3 0.9 0 0-0.4-0.2-0.8-0.5-0.4-0.4-0.7-0.9-0.9-1.5-0.1-0.6-0.1-1.2 0-1.7 0.1-0.6 0.3-0.9 0.3-0.9z"/>
						</g>
					</g>
				</g>
				<g id="&lt;Group&gt;">
					<path id="&lt;Path&gt;" class="s16" d="m389.6 442c-1.4 0.1-2.5 1.6-2.5 3 0 1.6 0.9 3 2 4.2 9 10.7 29.6 13.7 42.6 15.7 49.3 7.7 102.4 6.3 145.6-21.1 4.2-2.7 9.5-5.9 12.4-10.1 1.6-2.4 3.3-8.9-2.4-8.3 2.3-2.1 1.9-6.5-0.8-8.2 5.2-7.4 3.8-18.7-3.1-24.6-32.6 23.3-69.5 28.3-109 26.6-20.1-0.8-40.2-3-59.5-8.5-8-2.3-16-5.3-22.8-10-4.2 3.5-7.4 7.7-7.3 13.4 0 4.4 2.1 8.7 5.5 11.5-3.2 0.8-5 4.5-4.7 7.8 0.4 3.3 2.4 6.1 4.5 8.7q-0.3-0.1-0.5-0.1z"/>
					<g id="&lt;Group&gt;">
						<g id="&lt;Group&gt;" style="opacity: .54;mix-blend-mode: multiply">
							<path id="&lt;Path&gt;" class="s18" d="m389 424.4c0 0 1.4 0.6 3.7 1.7 1.1 0.6 2.6 1.2 4.2 1.9q2.4 1 5.5 2.2c2 0.8 4.2 1.6 6.6 2.4 2.3 0.9 4.9 1.6 7.5 2.4 2.6 0.8 5.3 1.6 8 2.2 2.8 0.8 5.7 1.3 8.5 1.9 2.8 0.5 5.7 1.1 8.5 1.5 2.8 0.4 5.6 0.7 8.3 1 2.7 0.2 5.4 0.5 7.8 0.6 2.5 0.1 4.9 0.2 7.1 0.2q3.3 0.1 5.9 0.1c1.8 0 3.4-0.1 4.6-0.1 2.6-0.1 4-0.2 4-0.2 0 0-1.4 0.2-3.9 0.6q-2 0.2-4.6 0.4c-1.8 0.2-3.8 0.3-6 0.4-2.2 0.1-4.6 0.1-7.1 0-2.5 0-5.2-0.1-7.9-0.3-2.8-0.3-5.6-0.5-8.4-0.9-2.9-0.3-5.8-0.9-8.7-1.4-2.8-0.6-5.7-1.2-8.5-2-2.8-0.6-5.5-1.5-8.2-2.3-2.6-0.9-5.1-1.7-7.4-2.7-2.3-0.9-4.5-1.8-6.5-2.8-2-0.8-3.8-1.7-5.4-2.6q-2.4-1.2-4.1-2.1c-2.2-1.3-3.5-2.1-3.5-2.1z"/>
						</g>
						<g id="&lt;Group&gt;" style="opacity: .54;mix-blend-mode: multiply">
							<path id="&lt;Path&gt;" class="s18" d="m442.7 432.9c0 0 2.2 0.3 6 0.7 1.9 0.2 4.3 0.5 6.9 0.8 2.7 0.1 5.8 0.4 9.1 0.6 3.3 0.2 6.9 0.3 10.6 0.4q2.9 0 5.9 0 3-0.1 6.1-0.1 3.1-0.2 6.3-0.3 3.1-0.2 6.4-0.5 3.2-0.3 6.5-0.6 3.3-0.4 6.5-0.8 3.3-0.5 6.6-1 3.2-0.6 6.4-1.1c4.3-0.8 8.5-1.7 12.5-2.7 4-1.1 7.9-2 11.5-3.1 3.6-1.1 7-2.2 10.1-3.4 6.1-2.4 11-5 14.3-7 1.7-1 2.9-1.9 3.8-2.5 0.8-0.6 1.3-0.9 1.3-0.9 0 0-0.4 0.4-1.3 1-0.8 0.7-2 1.6-3.6 2.7-3.2 2.2-8 5.1-14.1 7.7-3.1 1.3-6.5 2.6-10.1 3.8-3.6 1.2-7.5 2.3-11.5 3.4-4 1-8.2 1.9-12.5 2.8-4.3 0.9-8.7 1.6-13.1 2.2q-3.3 0.4-6.6 0.8-3.3 0.3-6.6 0.6-3.2 0.2-6.5 0.4-3.2 0.1-6.3 0.2-3.1 0-6.1 0-3-0.1-5.9-0.2c-3.8-0.2-7.4-0.4-10.7-0.7-3.3-0.2-6.4-0.7-9-1-2.7-0.4-5-0.8-6.9-1.1-3.9-0.7-6-1.1-6-1.1z"/>
						</g>
						<g id="&lt;Group&gt;" style="opacity: .54;mix-blend-mode: multiply">
							<path id="&lt;Path&gt;" class="s18" d="m583.3 418.8c0 0-0.5 0.4-1.5 1-0.9 0.6-2.3 1.6-4.1 2.5-1.7 1-3.7 2-6 3.1-2.2 1.1-4.6 2.1-7.1 3-2.5 0.9-5 1.8-7.3 2.4-2.4 0.7-4.7 1.3-6.6 1.7-1.9 0.4-3.6 0.6-4.7 0.8-1.1 0.1-1.8 0.2-1.8 0.2 0 0 0.6-0.2 1.7-0.6 1.1-0.4 2.6-0.9 4.5-1.6 3.7-1.2 8.6-2.9 13.5-4.8 4.9-1.8 9.7-3.7 13.4-5.2 1.8-0.8 3.3-1.4 4.4-1.8 1-0.4 1.6-0.7 1.6-0.7z"/>
						</g>
						<g id="&lt;Group&gt;" style="opacity: .54;mix-blend-mode: multiply">
							<path id="&lt;Path&gt;" class="s18" d="m583.2 428.1c0 0-0.5 0.6-1.4 1.6-0.8 1.1-2.2 2.5-4.1 4.2-2 1.6-4.5 3.5-7.5 5.3-3 1.9-6.7 3.7-10.7 5.5-4 1.7-8.5 3.3-13.3 4.8-4.7 1.5-9.9 2.9-15.2 4.1-5.3 1.2-10.8 2.3-16.5 3.2-5.7 0.9-11.5 1.6-17.3 2-11.7 0.9-23.3 1-34.2 0.7-11-0.2-21.2-1.2-29.8-2.6-8.6-1.4-15.7-3.4-20.5-4.9-2.4-0.8-4.3-1.5-5.6-2-1.3-0.5-1.9-0.7-1.9-0.7 0 0 0.6 0.2 1.9 0.6 1.3 0.5 3.3 1 5.7 1.7 4.9 1.4 12 3 20.6 4.2 8.6 1.3 18.7 1.9 29.6 2 10.9 0.2 22.5 0 34-0.9 5.8-0.5 11.6-1.1 17.2-1.9 5.6-0.8 11.1-2 16.4-3.1 10.6-2.3 20.4-5 28.5-8.3 4-1.6 7.6-3.2 10.7-5 3.1-1.7 5.6-3.5 7.6-5 2-1.6 3.5-2.9 4.4-4 0.9-1 1.4-1.5 1.4-1.5z"/>
						</g>
					</g>
				</g>
			</g>
			<g id="&lt;Group&gt;">
				<path id="&lt;Path&gt;" class="s23" d="m515.5 362.6c-2.7 2.5-6.9 3.8-10 4.9-5.5 2-11.4 2.5-17.2 3-3.1 0.2-6.7 0.2-8.6-2.2-1-1.3-1.3-3-1.3-4.6 0.1-3.9 2.2-10.8 7.1-10.6 1.6 0 3.2 0.7 4.8 1.2 8.5 3 17.7 3.1 26.7 3.1 0.3 0 0.7 0 0.9 0.2 0.1 0.2 0.1 0.4 0.1 0.7-0.1 1.8-1.2 3.1-2.5 4.3z"/>
				<g id="&lt;Group&gt;">
					<path id="&lt;Path&gt;" class="s3" d="m444.8 342.4c0.9-1.4 2.3-2.7 3.9-3.1 8.3-2 10.2 12.4 3.4 15.4-7.8 3.4-10.9-6.8-7.3-12.3z"/>
					<path id="&lt;Path&gt;" class="s3" d="m523.3 341.9c0.9-1.4 2.3-2.7 3.9-3.1 8.3-2 10.2 12.4 3.4 15.4-7.8 3.4-10.9-6.8-7.3-12.3z"/>
				</g>
				<g id="&lt;Group&gt;">
					<path id="&lt;Path&gt;" class="s24" d="m439 370c2.6-0.8 5.5-2.4 5.6-5.1 0.1-1.7-1.1-3.2-2.5-4-1.5-0.9-3.2-1.1-4.8-1.3-8.4-0.7-17 1.2-24.2 5.4-0.8 0.4-1.7 1-2 1.8-0.3 1 0.2 2.1 1 2.8 0.7 0.7 1.8 1 2.8 1.3 7.8 2.1 16.4 1.6 24.1-0.9z"/>
					<path id="&lt;Path&gt;" class="s24" d="m570.1 359.9c-0.2 0.6-0.6 1-1.1 1.4-3.6 3.1-8.6 4.1-13.3 4.5-6.1 0.4-12.2-0.1-18.1-1.4-0.6-0.1-1.3-0.3-1.6-0.8-0.7-0.9 0.1-2.2 0.9-2.9 5-5 12.6-5.9 19.7-6.2 3.8-0.2 7.7-0.2 11.1 1.5 1.5 0.8 3 2.3 2.4 3.9z"/>
				</g>
				<path id="&lt;Path&gt;" class="s25" d="m452.2 368.6c6 10.3 15.5 15 26.6 17.8 10 2.5 21.1 1.6 30.5-2.6 8.4-3.8 15.6-10.6 18.9-19.1"/>
				<path id="&lt;Path&gt;" class="s26" d="m470.3 302.6c-3.5 1.1-6.9 3.8-7.3 7.4-0.6 4.6 3.8 8.7 8.5 9.2 4.6 0.5 9.1-1.8 12.7-4.6 2.4-1.8 4.7-4 5.8-6.8 0.7-2 0.6-4.6-1.1-5.7-1.2-0.8-2.8-0.6-4 0.1-1.2 0.7-2.1 2-2.7 3.2-1.8 4.1-1.2 9.6 2.4 12.2 1.4 0.9 3 1.4 4.6 1.6 5.2 0.8 10.9-0.9 14.1-5 3.3-4.1 3.6-10.6 0.2-14.6"/>
			</g>
			<g id="&lt;Group&gt;">
				<path id="&lt;Path&gt;" class="s27" d="m476.7 493.5c-3.5-2.4-5.5-6.9-3.5-11.2 1.6-3.4 4.9-5.6 8.7-5.6 5.5 0 8.9 4.1 8.8 9.4 0 3.4-2.1 6.7-5.1 8.2-3.1 1.5-6.4 0.9-8.9-0.8z"/>
				<path id="&lt;Path&gt;" class="s27" d="m484.4 593.7c-3.5-2.4-5.5-6.9-3.5-11.2 1.6-3.4 4.9-5.6 8.7-5.6 5.5 0 8.9 4.1 8.9 9.4-0.1 3.4-2.2 6.7-5.2 8.2-3.1 1.5-6.4 0.9-8.9-0.8z"/>
			</g>
			<g id="&lt;Group&gt;">
				<g id="&lt;Group&gt;">
					<g id="&lt;Group&gt;" style="opacity: .42;mix-blend-mode: multiply">
						<path id="&lt;Path&gt;" class="s6" d="m620.1 461.9c0 0 0.3 0.3 0.5 1 0.3 0.7 0.4 1.8-0.1 3.1-0.1 0.6-0.5 1.2-0.9 1.8q-0.6 0.9-1.4 1.8c-1 1.1-2.2 2.2-3.5 3.2-2.4 2-5.2 3.7-7.4 4.7-2.2 1-3.7 1.4-3.7 1.4 0 0 1.2-1 3.1-2.4 1.9-1.4 4.4-3.3 6.8-5.3 1.2-0.9 2.3-1.9 3.5-2.9 0.5-0.5 1-0.9 1.4-1.4 0.5-0.5 0.8-0.9 1.1-1.4 0.5-0.9 0.7-1.8 0.7-2.5 0-0.7-0.1-1.1-0.1-1.1z"/>
					</g>
				</g>
			</g>
		</g>
	</g>
</svg>